# xmcd CD database file
#
# Track frame offsets:
#	150
#	19353
#	35578
#	54619
#	76792
#	97142
#	113883
#	135588
#	154122
#	173923
#
# Disc length: 2594 seconds
#
# Revision: 0
# Processed by: cddbd v1.5.2PL0 Copyright (c) Steve Scherf et al.
# Submitted via: CDex 1.51
#
DISCID=800a200a
DTITLE=Ismael Miranda - Con sabor y sentimiento
DYEAR=2006
DGENRE=Salsa
TTITLE0=Déjenme si estoy llorando
TTITLE1=Todavía duele
TTITLE2=Si las flores pudieran hablar
TTITLE3=Yo también soy sentimental
TTITLE4=Té me abandonaste
TTITLE5=A pesar de todo
TTITLE6=Quien eres tu
TTITLE7=Mi manera de amar
TTITLE8=Happy Birthday my darling
TTITLE9=Y mi vida ahora es otra
EXTD=YEAR: 2006
EXTT0=
EXTT1=
EXTT2=
EXTT3=
EXTT4=
EXTT5=
EXTT6=
EXTT7=
EXTT8=
EXTT9=
PLAYORDER=
